<?xml version="1.0" encoding="UTF-8" standalone="no"?><svg xmlns="http://www.w3.org/2000/svg" xmlns:xlink="http://www.w3.org/1999/xlink" fill="#000000" height="503" preserveAspectRatio="xMidYMid meet" version="1" viewBox="-1.4 -2.8 498.8 503.0" width="498.8" zoomAndPan="magnify"><g id="change1_1"><path d="M 15.589844 369.898438 C 18.234375 391.238281 21.679688 413.480469 34.324219 430.875 C 51.957031 455.125 83.234375 464.523438 112.457031 471.234375 C 193.394531 489.824219 276.375 499.484375 359.414062 499.988281 C 387.007812 500.152344 416.105469 498.886719 439.527344 484.296875 C 476.015625 461.570312 487.507812 414.273438 491.9375 371.515625 C 497.421875 318.589844 496.988281 265.253906 496.546875 212.046875 C 496.070312 154.1875 494.941406 93.671875 467.4375 42.765625 C 459.300781 27.699219 448.175781 13.171875 432.332031 6.679688 C 422.457031 2.632812 411.5625 2.035156 400.898438 1.589844 C 400.898438 1.585938 400.894531 1.585938 400.894531 1.585938 C 296.039062 -2.820312 190.542969 1.894531 86.585938 16.40625 C -1.421875 28.691406 2.566406 125.566406 3.539062 194.617188 C 4.363281 253.203125 8.386719 311.75 15.589844 369.898438" fill="#ffffff"/></g></svg>