<?xml version="1.0" encoding="UTF-8"?><svg xmlns="http://www.w3.org/2000/svg" xmlns:xlink="http://www.w3.org/1999/xlink" height="520.5" preserveAspectRatio="xMidYMid meet" version="1.0" viewBox="-22.9 0.0 487.9 520.5" width="487.9" zoomAndPan="magnify"><defs><clipPath id="a"><path d="M 8 0 L 465.011719 0 L 465.011719 457 L 8 457 Z M 8 0"/></clipPath></defs><g><g id="change1_1"><path d="M 94.546875 476.535156 C 12.707031 451.3125 -22.882812 330.75 15.398438 208.046875 C 53.496094 84.972656 150.980469 6.265625 232.820312 31.488281 C 314.660156 57.242188 350.160156 177.273438 312.152344 299.976562 C 273.871094 423.050781 176.550781 502.289062 94.546875 476.535156" fill="#b78800"/></g><g id="change1_2"><path d="M 94.546875 476.535156 L 154.023438 495.3125 L 133.542969 456.148438 Z M 94.546875 476.535156" fill="#b78800"/></g><g id="change1_3"><path d="M 292.113281 50.28125 L 232.820312 31.488281 L 253.117188 70.300781 Z M 292.113281 50.28125" fill="#b78800"/></g><g id="change2_1"><path d="M 154.023438 495.3125 C 72 469.558594 36.5 349.527344 74.78125 226.472656 C 112.882812 103.765625 210.273438 24.507812 292.113281 50.28125 C 374.046875 75.503906 409.363281 195.699219 371.261719 318.773438 C 333.160156 441.476562 235.953125 520.53125 154.023438 495.3125" fill="#fad300"/></g><g id="change3_1"><path d="M 167.980469 450.25 C 177.632812 452.742188 187.925781 454.171875 198.203125 453.457031 C 208.222656 452.742188 218.332031 450.25 227.710938 446.128906 C 246.503906 438.4375 263.046875 426.457031 276.910156 411.785156 C 291.03125 397.113281 302.757812 380.664062 312.867188 363.136719 C 322.519531 345.421875 330.578125 327.179688 336.476562 307.671875 C 342.285156 288.714844 346.132812 268.511719 348.019531 248.820312 C 349.628906 228.613281 348.730469 208.394531 345.070312 188.71875 C 341.039062 168.863281 334.242188 149.90625 323.050781 133.457031 C 317.429688 125.398438 310.980469 117.703125 303.285156 111.441406 C 295.59375 105.195312 287.023438 100.359375 277.257812 97.136719 C 258.667969 90.871094 237.382812 91.953125 218.496094 98.929688 C 199.449219 105.910156 182.46875 118.070312 167.796875 131.847656 C 153.125 146.152344 141.238281 162.964844 131.492188 180.679688 C 121.636719 198.558594 114.128906 217.699219 108.410156 237.023438 C 97.148438 275.488281 92.84375 316.976562 99.457031 356.871094 C 102.953125 376.542969 109.566406 396.050781 120.757812 413.214844 C 126.199219 421.621094 133.175781 429.316406 141.054688 435.925781 C 148.929688 442.191406 158.050781 446.84375 167.980469 450.25 Z M 167.613281 450.964844 C 147.847656 445.046875 130.757812 431.457031 118.503906 414.644531 C 106.085938 397.828125 98.027344 378.523438 93.300781 357.933594 C 88.28125 337.730469 86.851562 316.445312 88.097656 295.691406 C 89.617188 274.757812 93.832031 254.1875 100.1875 234.511719 C 113.414062 194.984375 135.59375 158.3125 165.378906 129.703125 C 180.398438 115.378906 197.855469 103.398438 217.253906 95.707031 C 226.90625 91.953125 237.382812 89.441406 247.65625 88.726562 C 258.300781 88.011719 268.871094 89.09375 279.144531 91.953125 C 299.625 97.503906 317.613281 111.441406 329.863281 128.621094 C 342.285156 145.785156 350.160156 166.355469 354.628906 186.945312 C 363.222656 228.25 359.558594 271.183594 347.121094 311.078125 C 334.425781 350.605469 313.050781 388.707031 281.746094 416.785156 C 266.175781 430.742188 248.371094 442.558594 228.609375 449.167969 C 209.210938 455.78125 187.378906 457.578125 167.613281 450.964844" fill="#d3a300"/></g><g clip-path="url(#a)" id="change4_2"><path d="M 8.601562 124.5 L 229.15625 207.332031 L 340.140625 0 L 257.328125 220.207031 L 465.007812 331.464844 L 244.527344 248.820312 L 133.542969 456.148438 L 216.355469 235.941406 L 8.601562 124.5" fill="#fff"/></g><g id="change4_1"><path d="M 139.972656 264.570312 L 228.609375 224.144531 L 200.347656 131.132812 L 240.515625 219.839844 L 333.710938 191.578125 L 245.074219 231.839844 L 273.246094 325.035156 L 232.988281 236.308594 L 139.972656 264.570312" fill="#fff"/></g></g></svg>